<?xml version="1.0" encoding="UTF-8"?>
<svg width="700pt" height="700pt" version="1.1" viewBox="0 0 700 700" xmlns="http://www.w3.org/2000/svg">
 <g>
  <path d="m367.5 225.75c-10.5 0-15.75 1.75-12.25-14 1.75-8.75 5.25-19.25 10.5-28 5.25-10.5 17.5-22.75 31.5-19.25 12.25 3.5 22.75 15.75 36.75 10.5 7-1.75 14-10.5 19.25-15.75 15.75-22.75 5.25-42 3.5-66.5-1.75-10.5 0-22.75-10.5-29.75-15.75-10.5-22.75 7-26.25 19.25-3.5 8.75-3.5 12.25-10.5 19.25-5.25 5.25-15.75 8.75-19.25 15.75-8.75 10.5-7 22.75-17.5 31.5-10.5 7-17.5 14-24.5 24.5-10.5 15.75-15.75 29.75-21 49-3.5 14-5.25 12.25-19.25 15.75-12.25 3.5-24.5 10.5-36.75 17.5-24.5 15.75-43.75 35-61.25 57.75-24.5 29.75-28 78.75-28 117.25 0 52.5 40.25 99.75 91 115.5 61.25 17.5 138.25-5.25 171.5-63 26.25-45.5 43.75-105 29.75-155.75-12.25-54.25-52.5-98-106.75-101.5zm59.5-101.5c7 1.75 7 21-1.75 22.75-1.75 0-5.25-1.75-7-1.75-12.25-5.25-3.5-24.5 8.75-21zm15.75 253.75c0 28-10.5 66.5-28 87.5-15.75 21-33.25 29.75-56 38.5-33.25 12.25-78.75 12.25-106.75-12.25-29.75-24.5-42-52.5-40.25-91 1.75-31.5 8.75-63 29.75-87.5 29.75-35 71.75-54.25 115.5-52.5 31.5 0 52.5 7 70 35 7 12.25 12.25 26.25 15.75 40.25 3.5 15.75 0 26.25 0 42z"/>
  <path d="m493.5 148.75c-22.75 0-24.5 26.25 0 26.25 26.25 1.75 28-26.25 0-26.25z"/>
  <path d="m367.5 85.75c19.25 0 26.25-28 3.5-28-24.5-1.75-38.5 28-3.5 28z"/>
  <path d="m472.5 50.75c15.75 10.5 28-15.75 21-26.25-12.25-19.25-38.5 14-21 26.25z"/>
  <path d="m418.25 43.75c26.25 8.75 19.25-40.25-3.5-31.5-12.25 3.5-7 28 3.5 31.5z"/>
  <path d="m512.75 103.25c-12.25-8.75-40.25 8.75-24.5 21 12.25 10.5 40.25-12.25 24.5-21z"/>
  <path d="m330.75 136.5c19.25 3.5 49-26.25 19.25-26.25-10.5 1.75-43.75 22.75-19.25 26.25z"/>
  <path d="m490 84c5.25 21 35-1.75 28-17.5-5.25-17.5-31.5 3.5-28 17.5z"/>
  <path d="m348.25 315c-17.5 0-38.5 8.75-47.25 26.25-5.25 10.5 0 24.5-3.5 33.25-1.75 5.25-10.5 7-14 12.25-17.5 22.75 12.25 26.25 17.5 45.5 1.75 8.75-1.75 21 5.25 28 8.75 8.75 19.25 1.75 22.75-8.75 3.5-8.75-1.75-24.5 1.75-31.5s12.25-3.5 19.25-7 12.25-12.25 10.5-21c0-5.25-3.5-12.25-8.75-15.75-7-3.5-19.25 3.5-22.75 1.75-1.75-1.75-1.75-14-1.75-15.75 1.75-8.75 7-12.25 17.5-14 8.75-1.75 17.5 3.5 22.75-8.75 7-15.75-7-24.5-19.25-24.5z"/>
 </g>
</svg>
